<svg width="39" height="40" viewBox="0 0 39 40" fill="none" xmlns="http://www.w3.org/2000/svg">
<path fill-rule="evenodd" clip-rule="evenodd" d="M0.751546 12.8289L18.272 0.374777C18.9749 -0.124926 19.9593 -0.124926 20.6623 0.374777L38.1827 12.8289C38.6569 13.166 38.9342 13.6843 38.9342 14.2333V33.8042C38.9342 36.752 36.3195 39.1417 33.0941 39.1417H25.3073H13.627H5.84014C2.61472 39.1417 0 36.752 0 33.8042V14.2333C0 13.6843 0.277354 13.166 0.751546 12.8289ZM15.5737 35.5833H23.3605V21.35H15.5737V35.5833ZM27.254 35.5833V19.5708C27.254 18.5882 26.3824 17.7917 25.3073 17.7917H13.627C12.5518 17.7917 11.6803 18.5882 11.6803 19.5708V35.5833H5.84013C4.765 35.5833 3.89342 34.7867 3.89342 33.8041V15.1035L19.4671 4.0331L35.0408 15.1035V33.8041C35.0408 34.7867 34.1692 35.5833 33.0941 35.5833H27.254Z" fill="#373867"/>
</svg>
