<svg width="48" height="36" viewBox="0 0 48 36" fill="none" xmlns="http://www.w3.org/2000/svg">
<path fill-rule="evenodd" clip-rule="evenodd" d="M6.99448 0.25H40.8803C44.3705 0.25 47.219 2.84495 47.2339 6.03161C47.2341 6.04564 47.2341 6.05967 47.2339 6.07369V29.2839C47.2339 32.482 44.3797 35.0906 40.8803 35.0906H6.99448C3.49517 35.0906 0.640886 32.482 0.640886 29.2839V6.08558C0.640495 6.06277 0.640543 6.03994 0.641033 6.01711C0.664515 2.83709 3.50964 0.25 6.99448 0.25ZM4.87636 9.77431V29.2839C4.87636 30.344 5.83423 31.2195 6.99422 31.2195H40.8801C42.0401 31.2195 42.998 30.344 42.998 29.2839V9.77454L25.1519 21.1917C24.4226 21.6582 23.452 21.6582 22.7228 21.1917L4.87636 9.77431ZM42.7723 5.19352L23.9373 17.2433L5.1021 5.19335C5.45236 4.56039 6.17259 4.12118 6.99422 4.12118H40.8801C41.7018 4.12118 42.4221 4.56047 42.7723 5.19352Z" fill="#373867"/>
</svg>
